<svg
    xmlns="http://www.w3.org/2000/svg" viewBox="0 0 400 300">
    <g>
        <text x="50%" y="0" style="fill: rgb(54, 58, 61); dominant-baseline: text-before-edge; text-anchor: middle; font-weight: bold; font-family: sans-serif;">Initial State Absolute Value Error</text>
        <svg viewBox="0 0 1024 1024" x="115.04998779296875" y="26.100021362304688" height="11" width="11">
            <path d="M128 533.333h768c23.564 0 42.667-19.103 42.667-42.667v-85.333c0-23.564-19.103-42.667-42.667-42.667h-768c-23.564 0-42.667 19.103-42.667 42.667v85.333c0 23.564 19.103 42.667 42.667 42.667z" style="fill: rgb(83, 135, 221);"/>
        </svg>
        <text x="134.04998779296875" y="24.100021362304688" style="fill: rgb(83, 135, 221); dominant-baseline: text-before-edge; font-family: sans-serif;">new</text>
        <svg viewBox="0 0 1024 1024" x="167.51666259765625" y="26.100021362304688" height="11" width="11">
            <path d="M128 533.333h768c23.564 0 42.667-19.103 42.667-42.667v-85.333c0-23.564-19.103-42.667-42.667-42.667h-768c-23.564 0-42.667 19.103-42.667 42.667v85.333c0 23.564 19.103 42.667 42.667 42.667z" style="fill: rgb(229, 116, 57);"/>
        </svg>
        <text x="186.51666259765625" y="24.100021362304688" style="fill: rgb(229, 116, 57); dominant-baseline: text-before-edge; font-family: sans-serif;">policy_iteration</text>
    </g>
    <g transform="translate(0, 36.69999694824219)">
        <svg class="rv-xy-plot__inner" width="400" height="263">
            <g transform="translate(40,5)" class="rv-xy-plot__grid-lines">
                <line y1="228" y2="228" x1="0" x2="340" class="rv-xy-plot__grid-lines__line" style="stroke-width: 0.5px;"/>
                <line y1="172.63093252428868" y2="172.63093252428868" x1="0" x2="340" class="rv-xy-plot__grid-lines__line" style="stroke-width: 0.5px;"/>
                <line y1="117.2618650485774" y2="117.2618650485774" x1="0" x2="340" class="rv-xy-plot__grid-lines__line" style="stroke-width: 0.5px;"/>
                <line y1="61.89279757286612" y2="61.89279757286612" x1="0" x2="340" class="rv-xy-plot__grid-lines__line" style="stroke-width: 0.5px;"/>
                <line y1="6.523730097154815" y2="6.523730097154815" x1="0" x2="340" class="rv-xy-plot__grid-lines__line" style="stroke-width: 0.5px;"/>
            </g>
            <path d="M0,0L14.166666666666666,0L28.333333333333332,0L42.5,0L56.666666666666664,0L70.83333333333334,1.3657437535216346L85,8.322726083440514L99.16666666666667,40.726964554184676L113.33333333333333,92.16830905278843L127.5,131.64536137781312L141.66666666666669,185.19660233550783L155.83333333333331,217.14285714285714L170,223.39393939393938L184.16666666666666,228L198.33333333333334,228L212.5,228L226.66666666666666,228L240.83333333333334,228L255,228L269.16666666666663,228L283.33333333333337,228L297.5,228L311.66666666666663,228L325.83333333333337,228L340,228L340,228L325.83333333333337,228L311.66666666666663,228L297.5,228L283.33333333333337,228L269.16666666666663,228L255,228L240.83333333333334,228L226.66666666666666,228L212.5,228L198.33333333333334,228L184.16666666666666,228L170,228L155.83333333333331,225.03896103896105L141.66666666666669,201.71248857358307L127.5,153.93039619794445L113.33333333333333,115.10441821993884L99.16666666666667,59.73121719732535L85,19.313637552923147L70.83333333333334,7.846377458599586L56.666666666666664,0L42.5,0L28.333333333333332,0L14.166666666666666,0L0,0Z" class="rv-xy-plot__series rv-xy-plot__series--line" transform="translate(40,5)" style="opacity: 1; stroke: rgba(0, 0, 0, 0); fill: rgba(229, 116, 57, 0.1);"/>
            <path d="M0,0L14.166666666666666,0L28.333333333333332,0L42.5,0L56.666666666666664,0L70.83333333333334,4.606060606060611L85,13.81818181818183L99.16666666666667,50.229090875755L113.33333333333333,103.63636363636364L127.5,142.7878787878788L141.66666666666669,193.45454545454547L155.83333333333331,221.0909090909091L170,225.69696969696972L184.16666666666666,228L198.33333333333334,228L212.5,228L226.66666666666666,228L240.83333333333334,228L255,228L269.16666666666663,228L283.33333333333337,228L297.5,228L311.66666666666663,228L325.83333333333337,228L340,228" class="rv-xy-plot__series rv-xy-plot__series--line" transform="translate(40,5)" style="opacity: 1; stroke-width: 1.5px; stroke: rgb(229, 116, 57);"/>
            <path d="M0,0.0011117121000383534L14.166666666666666,71.88933794431972L28.333333333333332,102.73627078123056L42.5,126.85729691454821L56.666666666666664,145.71730888640877L70.83333333333334,160.59615867785888L85,172.44382662583885L99.16666666666667,181.95729682290093L113.33333333333333,189.65259935948183L127.5,195.91701911994068L141.66666666666669,201.04530376401974L155.83333333333331,205.26456054046346L170,208.75170947449186L184.16666666666666,211.64588654356126L198.33333333333334,214.05737412042092L212.5,216.07418105403096L226.66666666666666,217.76691125860418L240.83333333333334,219.19261359144622L255,220.39738491431166L269.16666666666663,221.41886206871348L283.33333333333337,222.28768652806656L297.5,223.02899842496362L311.66666666666663,223.6634657095262L325.83333333333337,224.20808909670933L340,224.67698255835566L340,224.7899931703056L325.83333333333337,224.3332285324348L311.66666666666663,223.8020626437051L297.5,223.18256095065158L283.33333333333337,222.45792660115285L269.16666666666663,221.60774598853723L255,220.60719274586646L240.83333333333334,219.42601701753742L226.66666666666666,218.0270666181169L212.5,216.3648527417239L198.33333333333334,214.38308759663732L184.16666666666666,212.01210078809686L170,209.16504844901172L155.83333333333331,205.7330325498477L141.66666666666669,201.5785476203498L127.5,196.52653404888179L113.33333333333333,190.35188975547123L99.16666666666667,182.76185422449532L85,173.37073057276692L70.83333333333334,161.66294374001112L56.666666666666664,146.93930668905125L42.5,128.24176589448868L28.333333333333332,104.26933888561753L14.166666666666666,73.50400956659432L0,0.0016819525710332073Z" class="rv-xy-plot__series rv-xy-plot__series--line" transform="translate(40,5)" style="opacity: 1; stroke: rgba(0, 0, 0, 0); fill: rgba(83, 135, 221, 0.1);"/>
            <path d="M0,0.0013968323355357803L14.166666666666666,72.69667375545701L28.333333333333332,103.50280483342405L42.5,127.54953140451845L56.666666666666664,146.32830778773L70.83333333333334,161.129551208935L85,172.90727859930288L99.16666666666667,182.35957552369814L113.33333333333333,190.00224455747653L127.5,196.22177658441123L141.66666666666669,201.3119256921848L155.83333333333331,205.49879654515556L170,208.9583789617518L184.16666666666666,211.82899366582905L198.33333333333334,214.22023085852913L212.5,216.2195168978774L226.66666666666666,217.89698893836052L240.83333333333334,219.3093153044918L255,220.50228883008904L269.16666666666663,221.51330402862536L283.33333333333337,222.3728065646097L297.5,223.10577968780757L311.66666666666663,223.73276417661566L325.83333333333337,224.27065881457207L340,224.7334878643306" class="rv-xy-plot__series rv-xy-plot__series--line" transform="translate(40,5)" style="opacity: 1; stroke-width: 1.5px; stroke: rgb(83, 135, 221);"/>
            <g class="rv-xy-plot__series rv-xy-plot__series--mark" transform="translate(40,5)">
                <circle r="2" cx="340" cy="224.7334878643306" style="opacity: 1; stroke: rgb(83, 135, 221); fill: rgb(83, 135, 221); stroke-width: 1px;"/>
            </g>
            <g class="rv-xy-plot__series rv-xy-plot__series--mark" transform="translate(40,5)">
                <circle r="2" cx="340" cy="228" style="opacity: 1; stroke: rgb(229, 116, 57); fill: rgb(229, 116, 57); stroke-width: 1px;"/>
            </g>
            <defs class="rv-gradient-defs">
                <linearGradient id="leftFadeGradient" x1="0" x2="1" y1="0" y2="0">
                    <stop offset="0%" stop-color="white" stop-opacity="1"/>
                    <stop offset="60%" stop-color="white" stop-opacity="1"/>
                    <stop offset="100%" stop-color="white" stop-opacity="0"/>
                </linearGradient>
                <linearGradient id="rightFadeGradient" x1="1" x2="0" y1="0" y2="0">
                    <stop offset="0%" stop-color="white" stop-opacity="1"/>
                    <stop offset="100%" stop-color="white" stop-opacity="0"/>
                </linearGradient>
                <linearGradient id="bottomFadeGradient" x1="0" x2="0" y1="1" y2="0">
                    <stop offset="0%" stop-color="white" stop-opacity="1"/>
                    <stop offset="40%" stop-color="white" stop-opacity="1"/>
                    <stop offset="100%" stop-color="white" stop-opacity="0"/>
                </linearGradient>
                <linearGradient id="topFadeGradient" x1="0" x2="0" y1="0" y2="1">
                    <stop offset="0%" stop-color="white" stop-opacity="1"/>
                    <stop offset="100%" stop-color="white" stop-opacity="0"/>
                </linearGradient>
            </defs>
            <g class="rv-xy-plot__borders plot-border">
                <rect class="rv-xy-plot__borders-bottom plot-border-bottom" style="fill: url(&quot;#bottomFadeGradient&quot;); opacity: 1;" x="0" y="233" width="400" height="30"/>
                <rect class="rv-xy-plot__borders-left plot-border-left" style="fill: url(&quot;#leftFadeGradient&quot;); opacity: 1;" x="0" y="0" width="40" height="263"/>
                <rect class="rv-xy-plot__borders-right plot-border-right" style="fill: url(&quot;#rightFadeGradient&quot;); opacity: 1;" x="380" y="0" width="20" height="263"/>
                <rect class="rv-xy-plot__borders-top plot-border-top" style="fill: url(&quot;#topFadeGradient&quot;); opacity: 1;" x="0" y="0" width="400" height="5"/>
            </g>
            <g transform="translate(40,233)" class="rv-xy-plot__axis rv-xy-plot__axis--horizontal">
                <line x1="0" x2="340" y1="0" y2="0" class="rv-xy-plot__axis__line"/>
                <g transform="translate(0, 0)" class="rv-xy-plot__axis__ticks"/></g>
            <g transform="translate(40,233)" class="rv-xy-plot__axis rv-xy-plot__axis--horizontal" style="font-family: Source Sans Pro; fill: rgb(107, 107, 118); font-size: 11px;">
                <line x1="0" x2="340" y1="0" y2="0" class="rv-xy-plot__axis__line" style="font-family: Source Sans Pro; fill: rgb(107, 107, 118); font-size: 11px; stroke-width: 0px;"/>
                <g transform="translate(0, 0)" class="rv-xy-plot__axis__ticks">
                    <g transform="translate(0, 0)" class="rv-xy-plot__axis__tick" style="font-family: Source Sans Pro; fill: rgb(107, 107, 118); font-size: 11px;">
                        <line x1="0" x2="0" y1="-6" y2="6" class="rv-xy-plot__axis__tick__line" style="font-family: Source Sans Pro; fill: rgb(107, 107, 118); font-size: 11px; stroke-width: 0px;"/>
                        <text text-anchor="middle" dy="0.72em" transform="translate(0, 14)" class="rv-xy-plot__axis__tick__text" style="font-family: sans-serif; fill: rgb(107, 107, 118); font-size: 11px;">0</text>
                    </g>
                    <g transform="translate(70.83333333333334, 0)" class="rv-xy-plot__axis__tick" style="font-family: Source Sans Pro; fill: rgb(107, 107, 118); font-size: 11px;">
                        <line x1="0" x2="0" y1="-6" y2="6" class="rv-xy-plot__axis__tick__line" style="font-family: Source Sans Pro; fill: rgb(107, 107, 118); font-size: 11px; stroke-width: 0px;"/>
                        <text text-anchor="middle" dy="0.72em" transform="translate(0, 14)" class="rv-xy-plot__axis__tick__text" style="font-family: sans-serif; fill: rgb(107, 107, 118); font-size: 11px;">5</text>
                    </g>
                    <g transform="translate(141.66666666666669, 0)" class="rv-xy-plot__axis__tick" style="font-family: Source Sans Pro; fill: rgb(107, 107, 118); font-size: 11px;">
                        <line x1="0" x2="0" y1="-6" y2="6" class="rv-xy-plot__axis__tick__line" style="font-family: Source Sans Pro; fill: rgb(107, 107, 118); font-size: 11px; stroke-width: 0px;"/>
                        <text text-anchor="middle" dy="0.72em" transform="translate(0, 14)" class="rv-xy-plot__axis__tick__text" style="font-family: sans-serif; fill: rgb(107, 107, 118); font-size: 11px;">10</text>
                    </g>
                    <g transform="translate(212.5, 0)" class="rv-xy-plot__axis__tick" style="font-family: Source Sans Pro; fill: rgb(107, 107, 118); font-size: 11px;">
                        <line x1="0" x2="0" y1="-6" y2="6" class="rv-xy-plot__axis__tick__line" style="font-family: Source Sans Pro; fill: rgb(107, 107, 118); font-size: 11px; stroke-width: 0px;"/>
                        <text text-anchor="middle" dy="0.72em" transform="translate(0, 14)" class="rv-xy-plot__axis__tick__text" style="font-family: sans-serif; fill: rgb(107, 107, 118); font-size: 11px;">15</text>
                    </g>
                    <g transform="translate(283.33333333333337, 0)" class="rv-xy-plot__axis__tick" style="font-family: Source Sans Pro; fill: rgb(107, 107, 118); font-size: 11px;">
                        <line x1="0" x2="0" y1="-6" y2="6" class="rv-xy-plot__axis__tick__line" style="font-family: Source Sans Pro; fill: rgb(107, 107, 118); font-size: 11px; stroke-width: 0px;"/>
                        <text text-anchor="middle" dy="0.72em" transform="translate(0, 14)" class="rv-xy-plot__axis__tick__text" style="font-family: sans-serif; fill: rgb(107, 107, 118); font-size: 11px;">20</text>
                    </g>
                </g>
                <g transform="translate(0, 0)" class="rv-xy-plot__axis__title">
                    <g style="text-anchor: end; font-family: Source Sans Pro; fill: rgb(107, 107, 118); font-size: 11px;" transform="translate(334, -6) rotate(0)">
                        <text style="font-family: sans-serif; fill: rgb(107, 107, 118); font-size: 11px;">Iteration</text>
                    </g>
                </g>
            </g>
            <g transform="translate(40,233)" class="rv-xy-plot__axis rv-xy-plot__axis--horizontal">
                <line x1="0" x2="0" y1="0" y2="0" class="rv-xy-plot__axis__line"/>
                <g transform="translate(0, 0)" class="rv-xy-plot__axis__ticks">
                    <g transform="translate(0, 0)" class="rv-xy-plot__axis__tick">
                        <line x1="0" x2="0" y1="-6" y2="6" class="rv-xy-plot__axis__tick__line"/>
                        <text text-anchor="middle" dy="0.72em" transform="translate(0, 14)" class="rv-xy-plot__axis__tick__text" style="font-family: sans-serif;"/>
                    </g>
                    <g transform="translate(70.83333333333334, 0)" class="rv-xy-plot__axis__tick">
                        <line x1="0" x2="0" y1="-6" y2="6" class="rv-xy-plot__axis__tick__line"/>
                        <text text-anchor="middle" dy="0.72em" transform="translate(0, 14)" class="rv-xy-plot__axis__tick__text" style="font-family: sans-serif;"/>
                    </g>
                    <g transform="translate(141.66666666666669, 0)" class="rv-xy-plot__axis__tick">
                        <line x1="0" x2="0" y1="-6" y2="6" class="rv-xy-plot__axis__tick__line"/>
                        <text text-anchor="middle" dy="0.72em" transform="translate(0, 14)" class="rv-xy-plot__axis__tick__text" style="font-family: sans-serif;"/>
                    </g>
                    <g transform="translate(212.5, 0)" class="rv-xy-plot__axis__tick">
                        <line x1="0" x2="0" y1="-6" y2="6" class="rv-xy-plot__axis__tick__line"/>
                        <text text-anchor="middle" dy="0.72em" transform="translate(0, 14)" class="rv-xy-plot__axis__tick__text" style="font-family: sans-serif;"/>
                    </g>
                    <g transform="translate(283.33333333333337, 0)" class="rv-xy-plot__axis__tick">
                        <line x1="0" x2="0" y1="-6" y2="6" class="rv-xy-plot__axis__tick__line"/>
                        <text text-anchor="middle" dy="0.72em" transform="translate(0, 14)" class="rv-xy-plot__axis__tick__text" style="font-family: sans-serif;"/>
                    </g>
                </g>
            </g>
            <g transform="translate(0,5)" class="rv-xy-plot__axis rv-xy-plot__axis--vertical" style="font-family: Source Sans Pro; fill: rgb(107, 107, 118); font-size: 11px;">
                <line x1="40" x2="40" y1="0" y2="228" class="rv-xy-plot__axis__line" style="font-family: Source Sans Pro; fill: rgb(107, 107, 118); font-size: 11px; stroke: none;"/>
                <g transform="translate(40, 0)" class="rv-xy-plot__axis__ticks">
                    <g transform="translate(0, 228)" class="rv-xy-plot__axis__tick" style="font-family: Source Sans Pro; fill: rgb(107, 107, 118); font-size: 11px;">
                        <line y1="0" y2="0" x1="6" x2="-6" class="rv-xy-plot__axis__tick__line" style="font-family: Source Sans Pro; fill: rgb(107, 107, 118); font-size: 11px; stroke: none;"/>
                        <text text-anchor="end" dy="0.32em" transform="translate(-14, 0)" class="rv-xy-plot__axis__tick__text" style="font-family: sans-serif; fill: rgb(107, 107, 118); font-size: 11px;">0</text>
                    </g>
                    <g transform="translate(0, 172.63093252428868)" class="rv-xy-plot__axis__tick" style="font-family: Source Sans Pro; fill: rgb(107, 107, 118); font-size: 11px;">
                        <line y1="0" y2="0" x1="6" x2="-6" class="rv-xy-plot__axis__tick__line" style="font-family: Source Sans Pro; fill: rgb(107, 107, 118); font-size: 11px; stroke: none;"/>
                        <text text-anchor="end" dy="0.32em" transform="translate(-14, 0)" class="rv-xy-plot__axis__tick__text" style="font-family: sans-serif; fill: rgb(107, 107, 118); font-size: 11px;">0.05</text>
                    </g>
                    <g transform="translate(0, 117.2618650485774)" class="rv-xy-plot__axis__tick" style="font-family: Source Sans Pro; fill: rgb(107, 107, 118); font-size: 11px;">
                        <line y1="0" y2="0" x1="6" x2="-6" class="rv-xy-plot__axis__tick__line" style="font-family: Source Sans Pro; fill: rgb(107, 107, 118); font-size: 11px; stroke: none;"/>
                        <text text-anchor="end" dy="0.32em" transform="translate(-14, 0)" class="rv-xy-plot__axis__tick__text" style="font-family: sans-serif; fill: rgb(107, 107, 118); font-size: 11px;">0.1</text>
                    </g>
                    <g transform="translate(0, 61.89279757286612)" class="rv-xy-plot__axis__tick" style="font-family: Source Sans Pro; fill: rgb(107, 107, 118); font-size: 11px;">
                        <line y1="0" y2="0" x1="6" x2="-6" class="rv-xy-plot__axis__tick__line" style="font-family: Source Sans Pro; fill: rgb(107, 107, 118); font-size: 11px; stroke: none;"/>
                        <text text-anchor="end" dy="0.32em" transform="translate(-14, 0)" class="rv-xy-plot__axis__tick__text" style="font-family: sans-serif; fill: rgb(107, 107, 118); font-size: 11px;">0.15</text>
                    </g>
                    <g transform="translate(0, 6.523730097154815)" class="rv-xy-plot__axis__tick" style="font-family: Source Sans Pro; fill: rgb(107, 107, 118); font-size: 11px;">
                        <line y1="0" y2="0" x1="6" x2="-6" class="rv-xy-plot__axis__tick__line" style="font-family: Source Sans Pro; fill: rgb(107, 107, 118); font-size: 11px; stroke: none;"/>
                        <text text-anchor="end" dy="0.32em" transform="translate(-14, 0)" class="rv-xy-plot__axis__tick__text" style="font-family: sans-serif; fill: rgb(107, 107, 118); font-size: 11px;">0.2</text>
                    </g>
                </g>
            </g>
        </svg>
    </g>
    <style
        xmlns="http://www.w3.org/1999/xhtml">/*&lt;![CDATA[*/
        <br />text { font-size: 10px; fill: black }
        <br />.react-vis-magic-css-import-rule{display:inherit}.rv-treemap{font-size:12px;position:relative}.rv-treemap__leaf{overflow:hidden;position:absolute}.rv-treemap__leaf--circle{align-items:center;border-radius:100%;display:flex;justify-content:center}.rv-treemap__leaf__content{overflow:hidden;padding:10px;text-overflow:ellipsis}.rv-xy-plot{color:#c3c3c3;position:relative}.rv-xy-plot canvas{pointer-events:none}.rv-xy-plot .rv-xy-canvas{pointer-events:none;position:absolute}.rv-xy-plot__inner{display:block}.rv-xy-plot__axis__line{fill:none;stroke-width:2px;stroke:#e6e6e9}.rv-xy-plot__axis__tick__line{stroke:#e6e6e9}.rv-xy-plot__axis__tick__text{fill:#6b6b76;font-size:11px}.rv-xy-plot__axis__title text{fill:#6b6b76;font-size:11px}.rv-xy-plot__grid-lines__line{stroke:#e6e6e9}.rv-xy-plot__circular-grid-lines__line{fill-opacity:0;stroke:#e6e6e9}.rv-xy-plot__series,.rv-xy-plot__series path{pointer-events:all}.rv-xy-plot__series--line{fill:none;stroke:#000;stroke-width:2px}.rv-crosshair{position:absolute;font-size:11px;pointer-events:none}.rv-crosshair__line{background:#47d3d9;width:1px}.rv-crosshair__inner{position:absolute;text-align:left;top:0}.rv-crosshair__inner__content{border-radius:4px;background:#3a3a48;color:#fff;font-size:12px;padding:7px 10px;box-shadow:0 2px 4px rgba(0,0,0,0.5)}.rv-crosshair__inner--left{right:4px}.rv-crosshair__inner--right{left:4px}.rv-crosshair__title{font-weight:bold;white-space:nowrap}.rv-crosshair__item{white-space:nowrap}.rv-hint{position:absolute;pointer-events:none}.rv-hint__content{border-radius:4px;padding:7px 10px;font-size:12px;background:#3a3a48;box-shadow:0 2px 4px rgba(0,0,0,0.5);color:#fff;text-align:left;white-space:nowrap}.rv-discrete-color-legend{box-sizing:border-box;overflow-y:auto;font-size:12px}.rv-discrete-color-legend.horizontal{white-space:nowrap}.rv-discrete-color-legend-item{color:#3a3a48;border-radius:1px;padding:9px 10px}.rv-discrete-color-legend-item.horizontal{display:inline-block}.rv-discrete-color-legend-item.horizontal .rv-discrete-color-legend-item__title{margin-left:0;display:block}.rv-discrete-color-legend-item__color{display:inline-block;vertical-align:middle;overflow:visible}.rv-discrete-color-legend-item__color__path{stroke:#dcdcdc;stroke-width:2px}.rv-discrete-color-legend-item__title{margin-left:10px}.rv-discrete-color-legend-item.disabled{color:#b8b8b8}.rv-discrete-color-legend-item.clickable{cursor:pointer}.rv-discrete-color-legend-item.clickable:hover{background:#f9f9f9}.rv-search-wrapper{display:flex;flex-direction:column}.rv-search-wrapper__form{flex:0}.rv-search-wrapper__form__input{width:100%;color:#a6a6a5;border:1px solid #e5e5e4;padding:7px 10px;font-size:12px;box-sizing:border-box;border-radius:2px;margin:0 0 9px;outline:0}.rv-search-wrapper__contents{flex:1;overflow:auto}.rv-continuous-color-legend{font-size:12px}.rv-continuous-color-legend .rv-gradient{height:4px;border-radius:2px;margin-bottom:5px}.rv-continuous-size-legend{font-size:12px}.rv-continuous-size-legend .rv-bubbles{text-align:justify;overflow:hidden;margin-bottom:5px;width:100%}.rv-continuous-size-legend .rv-bubble{background:#d8d9dc;display:inline-block;vertical-align:bottom}.rv-continuous-size-legend .rv-spacer{display:inline-block;font-size:0;line-height:0;width:100%}.rv-legend-titles{height:16px;position:relative}.rv-legend-titles__left,.rv-legend-titles__right,.rv-legend-titles__center{position:absolute;white-space:nowrap;overflow:hidden}.rv-legend-titles__center{display:block;text-align:center;width:100%}.rv-legend-titles__right{right:0}.rv-radial-chart .rv-xy-plot__series--label{pointer-events:none}
        <br />
        <br />/*]]&gt;*/
    </style>
</svg>
