<svg
    xmlns="http://www.w3.org/2000/svg" viewBox="0 0 400 300">
    <g>
        <text x="50%" y="0" style="fill: rgb(54, 58, 61); dominant-baseline: text-before-edge; text-anchor: middle; font-weight: bold; font-family: sans-serif;">RMSVE</text>
        <svg viewBox="0 0 1024 1024" x="115.04998779296875" y="26.100021362304688" height="11" width="11">
            <path d="M128 533.333h768c23.564 0 42.667-19.103 42.667-42.667v-85.333c0-23.564-19.103-42.667-42.667-42.667h-768c-23.564 0-42.667 19.103-42.667 42.667v85.333c0 23.564 19.103 42.667 42.667 42.667z" style="fill: rgb(83, 135, 221);"/>
        </svg>
        <text x="134.04998779296875" y="24.100021362304688" style="fill: rgb(83, 135, 221); dominant-baseline: text-before-edge; font-family: sans-serif;">new</text>
        <svg viewBox="0 0 1024 1024" x="167.51666259765625" y="26.100021362304688" height="11" width="11">
            <path d="M128 533.333h768c23.564 0 42.667-19.103 42.667-42.667v-85.333c0-23.564-19.103-42.667-42.667-42.667h-768c-23.564 0-42.667 19.103-42.667 42.667v85.333c0 23.564 19.103 42.667 42.667 42.667z" style="fill: rgb(229, 116, 57);"/>
        </svg>
        <text x="186.51666259765625" y="24.100021362304688" style="fill: rgb(229, 116, 57); dominant-baseline: text-before-edge; font-family: sans-serif;">policy_iteration</text>
    </g>
    <g transform="translate(0, 36.69999694824219)">
        <svg class="rv-xy-plot__inner" width="400" height="263">
            <g transform="translate(34,5)" class="rv-xy-plot__grid-lines">
                <line y1="228" y2="228" x1="0" x2="346" class="rv-xy-plot__grid-lines__line" style="stroke-width: 0.5px;"/>
                <line y1="184.33226019700993" y2="184.33226019700993" x1="0" x2="346" class="rv-xy-plot__grid-lines__line" style="stroke-width: 0.5px;"/>
                <line y1="140.6645203940198" y2="140.6645203940198" x1="0" x2="346" class="rv-xy-plot__grid-lines__line" style="stroke-width: 0.5px;"/>
                <line y1="96.99678059102973" y2="96.99678059102973" x1="0" x2="346" class="rv-xy-plot__grid-lines__line" style="stroke-width: 0.5px;"/>
                <line y1="53.32904078803963" y2="53.32904078803963" x1="0" x2="346" class="rv-xy-plot__grid-lines__line" style="stroke-width: 0.5px;"/>
                <line y1="9.661300985049547" y2="9.661300985049547" x1="0" x2="346" class="rv-xy-plot__grid-lines__line" style="stroke-width: 0.5px;"/>
            </g>
            <path d="M0,0L14.416666666666666,24.837500254547255L28.833333333333332,54.40431709180193L43.25,77.98644038523165L57.666666666666664,98.36984321869339L72.08333333333334,124.22706492633898L86.5,152.30044783967983L100.91666666666667,177.48110274473183L115.33333333333333,197.9833836747061L129.75,213.50230070752866L144.16666666666669,223.55497964615077L158.58333333333331,227.0753210174429L173,227.7781007899143L187.41666666666666,228L201.83333333333334,228L216.25,228L230.66666666666666,228L245.08333333333334,228L259.5,228L273.91666666666663,228L288.33333333333337,228L302.75,228L317.16666666666663,228L331.58333333333337,228L346,228L346,228L331.58333333333337,228L317.16666666666663,228L302.75,228L288.33333333333337,228L273.91666666666663,228L259.5,228L245.08333333333334,228L230.66666666666666,228L216.25,228L201.83333333333334,228L187.41666666666666,228L173,228L158.58333333333331,227.65977838836977L144.16666666666669,225.11123962878585L129.75,216.7016982217665L115.33333333333333,202.37145067698387L100.91666666666667,182.41489629038827L86.5,157.6535949043191L72.08333333333334,129.52806838296567L57.666666666666664,102.77451926683383L43.25,81.52881008411819L28.833333333333332,57.782460344391964L14.416666666666666,27.986665122366517L0,1.5716713163805984Z" class="rv-xy-plot__series rv-xy-plot__series--line" transform="translate(34,5)" style="opacity: 1; stroke: rgba(0, 0, 0, 0); fill: rgba(229, 116, 57, 0.1);"/>
            <path d="M0,0.7858356581902992L14.416666666666666,26.4120826884569L28.833333333333332,56.09338871809695L43.25,79.7576252346749L57.666666666666664,100.5721812427636L72.08333333333334,126.87756665465234L86.5,154.97702137199943L100.91666666666667,179.94799951756005L115.33333333333333,200.177417175845L129.75,215.10199946464758L144.16666666666669,224.3331096374683L158.58333333333331,227.36754970290633L173,227.88905039495717L187.41666666666666,228L201.83333333333334,228L216.25,228L230.66666666666666,228L245.08333333333334,228L259.5,228L273.91666666666663,228L288.33333333333337,228L302.75,228L317.16666666666663,228L331.58333333333337,228L346,228" class="rv-xy-plot__series rv-xy-plot__series--line" transform="translate(34,5)" style="opacity: 1; stroke-width: 1.5px; stroke: rgb(229, 116, 57);"/>
            <path d="M0,11.754228773986595L14.416666666666666,140.4246829527214L28.833333333333332,161.47255047872278L43.25,175.8665892840571L57.666666666666664,186.29654122601528L72.08333333333334,194.13754327668556L86.5,200.18467801073544L100.91666666666667,204.93609737152045L115.33333333333333,208.72263419471165L129.75,211.77399512244156L144.16666666666669,214.2553457079198L158.58333333333331,216.2888023904603L173,217.96670295560625L187.41666666666666,219.360143977188L201.83333333333334,220.52455304042627L216.25,221.50348347729135L230.66666666666666,222.33123412721517L245.08333333333334,223.0348727050542L259.5,223.63579521443054L273.91666666666663,224.1512159067258L288.33333333333337,224.59513366012862L302.75,224.97913538048383L317.16666666666663,225.31286358345295L331.58333333333337,225.60431875063168L346,225.86012803572913L346,226.12444082361364L331.58333333333337,225.88094597203627L317.16666666666663,225.60115474913755L302.75,225.27843093537842L288.33333333333337,224.9047850412732L273.91666666666663,224.47059407285656L259.5,223.96428255264343L245.08333333333334,223.37183189109288L230.66666666666666,222.67598803510558L216.25,221.85535468096234L201.83333333333334,220.88301417488051L187.41666666666666,219.72505527018092L173,218.3385864424444L158.58333333333331,216.66907825337142L144.16666666666669,214.64652756277079L129.75,212.17989846213214L115.33333333333333,209.1486346221625L100.91666666666667,205.3894610976599L86.5,200.6749431959135L72.08333333333334,194.67710076231282L57.666666666666664,186.9020027070967L43.25,176.56252126429735L28.833333333333332,162.30222014142905L14.416666666666666,141.49104160574427L0,13.100879663394206Z" class="rv-xy-plot__series rv-xy-plot__series--line" transform="translate(34,5)" style="opacity: 1; stroke: rgba(0, 0, 0, 0); fill: rgba(83, 135, 221, 0.1);"/>
            <path d="M0,12.4275542186904L14.416666666666666,140.95786227923284L28.833333333333332,161.88738531007593L43.25,176.21455527417723L57.666666666666664,186.59927196655602L72.08333333333334,194.4073220194992L86.5,200.42981060332448L100.91666666666667,205.16277923459018L115.33333333333333,208.93563440843707L129.75,211.97694679228684L144.16666666666669,214.45093663534527L158.58333333333331,216.47894032191587L173,218.15264469902533L187.41666666666666,219.54259962368445L201.83333333333334,220.7037836076534L216.25,221.67941907912683L230.66666666666666,222.5036110811604L245.08333333333334,223.20335229807355L259.5,223.80003888353698L273.91666666666663,224.3109049897912L288.33333333333337,224.74995935070092L302.75,225.1287831579311L317.16666666666663,225.45700916629522L331.58333333333337,225.74263236133396L346,225.9922844296714" class="rv-xy-plot__series rv-xy-plot__series--line" transform="translate(34,5)" style="opacity: 1; stroke-width: 1.5px; stroke: rgb(83, 135, 221);"/>
            <g class="rv-xy-plot__series rv-xy-plot__series--mark" transform="translate(34,5)">
                <circle r="2" cx="346" cy="225.9922844296714" style="opacity: 1; stroke: rgb(83, 135, 221); fill: rgb(83, 135, 221); stroke-width: 1px;"/>
            </g>
            <g class="rv-xy-plot__series rv-xy-plot__series--mark" transform="translate(34,5)">
                <circle r="2" cx="346" cy="228" style="opacity: 1; stroke: rgb(229, 116, 57); fill: rgb(229, 116, 57); stroke-width: 1px;"/>
            </g>
            <defs class="rv-gradient-defs">
                <linearGradient id="leftFadeGradient" x1="0" x2="1" y1="0" y2="0">
                    <stop offset="0%" stop-color="white" stop-opacity="1"/>
                    <stop offset="60%" stop-color="white" stop-opacity="1"/>
                    <stop offset="100%" stop-color="white" stop-opacity="0"/>
                </linearGradient>
                <linearGradient id="rightFadeGradient" x1="1" x2="0" y1="0" y2="0">
                    <stop offset="0%" stop-color="white" stop-opacity="1"/>
                    <stop offset="100%" stop-color="white" stop-opacity="0"/>
                </linearGradient>
                <linearGradient id="bottomFadeGradient" x1="0" x2="0" y1="1" y2="0">
                    <stop offset="0%" stop-color="white" stop-opacity="1"/>
                    <stop offset="40%" stop-color="white" stop-opacity="1"/>
                    <stop offset="100%" stop-color="white" stop-opacity="0"/>
                </linearGradient>
                <linearGradient id="topFadeGradient" x1="0" x2="0" y1="0" y2="1">
                    <stop offset="0%" stop-color="white" stop-opacity="1"/>
                    <stop offset="100%" stop-color="white" stop-opacity="0"/>
                </linearGradient>
            </defs>
            <g class="rv-xy-plot__borders plot-border">
                <rect class="rv-xy-plot__borders-bottom plot-border-bottom" style="fill: url(&quot;#bottomFadeGradient&quot;); opacity: 1;" x="0" y="233" width="400" height="30"/>
                <rect class="rv-xy-plot__borders-left plot-border-left" style="fill: url(&quot;#leftFadeGradient&quot;); opacity: 1;" x="0" y="0" width="34" height="263"/>
                <rect class="rv-xy-plot__borders-right plot-border-right" style="fill: url(&quot;#rightFadeGradient&quot;); opacity: 1;" x="380" y="0" width="20" height="263"/>
                <rect class="rv-xy-plot__borders-top plot-border-top" style="fill: url(&quot;#topFadeGradient&quot;); opacity: 1;" x="0" y="0" width="400" height="5"/>
            </g>
            <g transform="translate(34,233)" class="rv-xy-plot__axis rv-xy-plot__axis--horizontal">
                <line x1="0" x2="346" y1="0" y2="0" class="rv-xy-plot__axis__line"/>
                <g transform="translate(0, 0)" class="rv-xy-plot__axis__ticks"/></g>
            <g transform="translate(34,233)" class="rv-xy-plot__axis rv-xy-plot__axis--horizontal" style="font-family: Source Sans Pro; fill: rgb(107, 107, 118); font-size: 11px;">
                <line x1="0" x2="346" y1="0" y2="0" class="rv-xy-plot__axis__line" style="font-family: Source Sans Pro; fill: rgb(107, 107, 118); font-size: 11px; stroke-width: 0px;"/>
                <g transform="translate(0, 0)" class="rv-xy-plot__axis__ticks">
                    <g transform="translate(0, 0)" class="rv-xy-plot__axis__tick" style="font-family: Source Sans Pro; fill: rgb(107, 107, 118); font-size: 11px;">
                        <line x1="0" x2="0" y1="-6" y2="6" class="rv-xy-plot__axis__tick__line" style="font-family: Source Sans Pro; fill: rgb(107, 107, 118); font-size: 11px; stroke-width: 0px;"/>
                        <text text-anchor="middle" dy="0.72em" transform="translate(0, 14)" class="rv-xy-plot__axis__tick__text" style="font-family: sans-serif; fill: rgb(107, 107, 118); font-size: 11px;">0</text>
                    </g>
                    <g transform="translate(72.08333333333334, 0)" class="rv-xy-plot__axis__tick" style="font-family: Source Sans Pro; fill: rgb(107, 107, 118); font-size: 11px;">
                        <line x1="0" x2="0" y1="-6" y2="6" class="rv-xy-plot__axis__tick__line" style="font-family: Source Sans Pro; fill: rgb(107, 107, 118); font-size: 11px; stroke-width: 0px;"/>
                        <text text-anchor="middle" dy="0.72em" transform="translate(0, 14)" class="rv-xy-plot__axis__tick__text" style="font-family: sans-serif; fill: rgb(107, 107, 118); font-size: 11px;">5</text>
                    </g>
                    <g transform="translate(144.16666666666669, 0)" class="rv-xy-plot__axis__tick" style="font-family: Source Sans Pro; fill: rgb(107, 107, 118); font-size: 11px;">
                        <line x1="0" x2="0" y1="-6" y2="6" class="rv-xy-plot__axis__tick__line" style="font-family: Source Sans Pro; fill: rgb(107, 107, 118); font-size: 11px; stroke-width: 0px;"/>
                        <text text-anchor="middle" dy="0.72em" transform="translate(0, 14)" class="rv-xy-plot__axis__tick__text" style="font-family: sans-serif; fill: rgb(107, 107, 118); font-size: 11px;">10</text>
                    </g>
                    <g transform="translate(216.25, 0)" class="rv-xy-plot__axis__tick" style="font-family: Source Sans Pro; fill: rgb(107, 107, 118); font-size: 11px;">
                        <line x1="0" x2="0" y1="-6" y2="6" class="rv-xy-plot__axis__tick__line" style="font-family: Source Sans Pro; fill: rgb(107, 107, 118); font-size: 11px; stroke-width: 0px;"/>
                        <text text-anchor="middle" dy="0.72em" transform="translate(0, 14)" class="rv-xy-plot__axis__tick__text" style="font-family: sans-serif; fill: rgb(107, 107, 118); font-size: 11px;">15</text>
                    </g>
                    <g transform="translate(288.33333333333337, 0)" class="rv-xy-plot__axis__tick" style="font-family: Source Sans Pro; fill: rgb(107, 107, 118); font-size: 11px;">
                        <line x1="0" x2="0" y1="-6" y2="6" class="rv-xy-plot__axis__tick__line" style="font-family: Source Sans Pro; fill: rgb(107, 107, 118); font-size: 11px; stroke-width: 0px;"/>
                        <text text-anchor="middle" dy="0.72em" transform="translate(0, 14)" class="rv-xy-plot__axis__tick__text" style="font-family: sans-serif; fill: rgb(107, 107, 118); font-size: 11px;">20</text>
                    </g>
                </g>
                <g transform="translate(0, 0)" class="rv-xy-plot__axis__title">
                    <g style="text-anchor: end; font-family: Source Sans Pro; fill: rgb(107, 107, 118); font-size: 11px;" transform="translate(340, -6) rotate(0)">
                        <text style="font-family: sans-serif; fill: rgb(107, 107, 118); font-size: 11px;">Iteration</text>
                    </g>
                </g>
            </g>
            <g transform="translate(34,233)" class="rv-xy-plot__axis rv-xy-plot__axis--horizontal">
                <line x1="0" x2="0" y1="0" y2="0" class="rv-xy-plot__axis__line"/>
                <g transform="translate(0, 0)" class="rv-xy-plot__axis__ticks">
                    <g transform="translate(0, 0)" class="rv-xy-plot__axis__tick">
                        <line x1="0" x2="0" y1="-6" y2="6" class="rv-xy-plot__axis__tick__line"/>
                        <text text-anchor="middle" dy="0.72em" transform="translate(0, 14)" class="rv-xy-plot__axis__tick__text" style="font-family: sans-serif;"/>
                    </g>
                    <g transform="translate(72.08333333333334, 0)" class="rv-xy-plot__axis__tick">
                        <line x1="0" x2="0" y1="-6" y2="6" class="rv-xy-plot__axis__tick__line"/>
                        <text text-anchor="middle" dy="0.72em" transform="translate(0, 14)" class="rv-xy-plot__axis__tick__text" style="font-family: sans-serif;"/>
                    </g>
                    <g transform="translate(144.16666666666669, 0)" class="rv-xy-plot__axis__tick">
                        <line x1="0" x2="0" y1="-6" y2="6" class="rv-xy-plot__axis__tick__line"/>
                        <text text-anchor="middle" dy="0.72em" transform="translate(0, 14)" class="rv-xy-plot__axis__tick__text" style="font-family: sans-serif;"/>
                    </g>
                    <g transform="translate(216.25, 0)" class="rv-xy-plot__axis__tick">
                        <line x1="0" x2="0" y1="-6" y2="6" class="rv-xy-plot__axis__tick__line"/>
                        <text text-anchor="middle" dy="0.72em" transform="translate(0, 14)" class="rv-xy-plot__axis__tick__text" style="font-family: sans-serif;"/>
                    </g>
                    <g transform="translate(288.33333333333337, 0)" class="rv-xy-plot__axis__tick">
                        <line x1="0" x2="0" y1="-6" y2="6" class="rv-xy-plot__axis__tick__line"/>
                        <text text-anchor="middle" dy="0.72em" transform="translate(0, 14)" class="rv-xy-plot__axis__tick__text" style="font-family: sans-serif;"/>
                    </g>
                </g>
            </g>
            <g transform="translate(0,5)" class="rv-xy-plot__axis rv-xy-plot__axis--vertical" style="font-family: Source Sans Pro; fill: rgb(107, 107, 118); font-size: 11px;">
                <line x1="34" x2="34" y1="0" y2="228" class="rv-xy-plot__axis__line" style="font-family: Source Sans Pro; fill: rgb(107, 107, 118); font-size: 11px; stroke: none;"/>
                <g transform="translate(34, 0)" class="rv-xy-plot__axis__ticks">
                    <g transform="translate(0, 228)" class="rv-xy-plot__axis__tick" style="font-family: Source Sans Pro; fill: rgb(107, 107, 118); font-size: 11px;">
                        <line y1="0" y2="0" x1="6" x2="-6" class="rv-xy-plot__axis__tick__line" style="font-family: Source Sans Pro; fill: rgb(107, 107, 118); font-size: 11px; stroke: none;"/>
                        <text text-anchor="end" dy="0.32em" transform="translate(-14, 0)" class="rv-xy-plot__axis__tick__text" style="font-family: sans-serif; fill: rgb(107, 107, 118); font-size: 11px;">0</text>
                    </g>
                    <g transform="translate(0, 184.33226019700993)" class="rv-xy-plot__axis__tick" style="font-family: Source Sans Pro; fill: rgb(107, 107, 118); font-size: 11px;">
                        <line y1="0" y2="0" x1="6" x2="-6" class="rv-xy-plot__axis__tick__line" style="font-family: Source Sans Pro; fill: rgb(107, 107, 118); font-size: 11px; stroke: none;"/>
                        <text text-anchor="end" dy="0.32em" transform="translate(-14, 0)" class="rv-xy-plot__axis__tick__text" style="font-family: sans-serif; fill: rgb(107, 107, 118); font-size: 11px;">0.1</text>
                    </g>
                    <g transform="translate(0, 140.6645203940198)" class="rv-xy-plot__axis__tick" style="font-family: Source Sans Pro; fill: rgb(107, 107, 118); font-size: 11px;">
                        <line y1="0" y2="0" x1="6" x2="-6" class="rv-xy-plot__axis__tick__line" style="font-family: Source Sans Pro; fill: rgb(107, 107, 118); font-size: 11px; stroke: none;"/>
                        <text text-anchor="end" dy="0.32em" transform="translate(-14, 0)" class="rv-xy-plot__axis__tick__text" style="font-family: sans-serif; fill: rgb(107, 107, 118); font-size: 11px;">0.2</text>
                    </g>
                    <g transform="translate(0, 96.99678059102973)" class="rv-xy-plot__axis__tick" style="font-family: Source Sans Pro; fill: rgb(107, 107, 118); font-size: 11px;">
                        <line y1="0" y2="0" x1="6" x2="-6" class="rv-xy-plot__axis__tick__line" style="font-family: Source Sans Pro; fill: rgb(107, 107, 118); font-size: 11px; stroke: none;"/>
                        <text text-anchor="end" dy="0.32em" transform="translate(-14, 0)" class="rv-xy-plot__axis__tick__text" style="font-family: sans-serif; fill: rgb(107, 107, 118); font-size: 11px;">0.3</text>
                    </g>
                    <g transform="translate(0, 53.32904078803963)" class="rv-xy-plot__axis__tick" style="font-family: Source Sans Pro; fill: rgb(107, 107, 118); font-size: 11px;">
                        <line y1="0" y2="0" x1="6" x2="-6" class="rv-xy-plot__axis__tick__line" style="font-family: Source Sans Pro; fill: rgb(107, 107, 118); font-size: 11px; stroke: none;"/>
                        <text text-anchor="end" dy="0.32em" transform="translate(-14, 0)" class="rv-xy-plot__axis__tick__text" style="font-family: sans-serif; fill: rgb(107, 107, 118); font-size: 11px;">0.4</text>
                    </g>
                    <g transform="translate(0, 9.661300985049547)" class="rv-xy-plot__axis__tick" style="font-family: Source Sans Pro; fill: rgb(107, 107, 118); font-size: 11px;">
                        <line y1="0" y2="0" x1="6" x2="-6" class="rv-xy-plot__axis__tick__line" style="font-family: Source Sans Pro; fill: rgb(107, 107, 118); font-size: 11px; stroke: none;"/>
                        <text text-anchor="end" dy="0.32em" transform="translate(-14, 0)" class="rv-xy-plot__axis__tick__text" style="font-family: sans-serif; fill: rgb(107, 107, 118); font-size: 11px;">0.5</text>
                    </g>
                </g>
            </g>
        </svg>
    </g>
    <style
        xmlns="http://www.w3.org/1999/xhtml">/*&lt;![CDATA[*/
        <br />text { font-size: 10px; fill: black }
        <br />.react-vis-magic-css-import-rule{display:inherit}.rv-treemap{font-size:12px;position:relative}.rv-treemap__leaf{overflow:hidden;position:absolute}.rv-treemap__leaf--circle{align-items:center;border-radius:100%;display:flex;justify-content:center}.rv-treemap__leaf__content{overflow:hidden;padding:10px;text-overflow:ellipsis}.rv-xy-plot{color:#c3c3c3;position:relative}.rv-xy-plot canvas{pointer-events:none}.rv-xy-plot .rv-xy-canvas{pointer-events:none;position:absolute}.rv-xy-plot__inner{display:block}.rv-xy-plot__axis__line{fill:none;stroke-width:2px;stroke:#e6e6e9}.rv-xy-plot__axis__tick__line{stroke:#e6e6e9}.rv-xy-plot__axis__tick__text{fill:#6b6b76;font-size:11px}.rv-xy-plot__axis__title text{fill:#6b6b76;font-size:11px}.rv-xy-plot__grid-lines__line{stroke:#e6e6e9}.rv-xy-plot__circular-grid-lines__line{fill-opacity:0;stroke:#e6e6e9}.rv-xy-plot__series,.rv-xy-plot__series path{pointer-events:all}.rv-xy-plot__series--line{fill:none;stroke:#000;stroke-width:2px}.rv-crosshair{position:absolute;font-size:11px;pointer-events:none}.rv-crosshair__line{background:#47d3d9;width:1px}.rv-crosshair__inner{position:absolute;text-align:left;top:0}.rv-crosshair__inner__content{border-radius:4px;background:#3a3a48;color:#fff;font-size:12px;padding:7px 10px;box-shadow:0 2px 4px rgba(0,0,0,0.5)}.rv-crosshair__inner--left{right:4px}.rv-crosshair__inner--right{left:4px}.rv-crosshair__title{font-weight:bold;white-space:nowrap}.rv-crosshair__item{white-space:nowrap}.rv-hint{position:absolute;pointer-events:none}.rv-hint__content{border-radius:4px;padding:7px 10px;font-size:12px;background:#3a3a48;box-shadow:0 2px 4px rgba(0,0,0,0.5);color:#fff;text-align:left;white-space:nowrap}.rv-discrete-color-legend{box-sizing:border-box;overflow-y:auto;font-size:12px}.rv-discrete-color-legend.horizontal{white-space:nowrap}.rv-discrete-color-legend-item{color:#3a3a48;border-radius:1px;padding:9px 10px}.rv-discrete-color-legend-item.horizontal{display:inline-block}.rv-discrete-color-legend-item.horizontal .rv-discrete-color-legend-item__title{margin-left:0;display:block}.rv-discrete-color-legend-item__color{display:inline-block;vertical-align:middle;overflow:visible}.rv-discrete-color-legend-item__color__path{stroke:#dcdcdc;stroke-width:2px}.rv-discrete-color-legend-item__title{margin-left:10px}.rv-discrete-color-legend-item.disabled{color:#b8b8b8}.rv-discrete-color-legend-item.clickable{cursor:pointer}.rv-discrete-color-legend-item.clickable:hover{background:#f9f9f9}.rv-search-wrapper{display:flex;flex-direction:column}.rv-search-wrapper__form{flex:0}.rv-search-wrapper__form__input{width:100%;color:#a6a6a5;border:1px solid #e5e5e4;padding:7px 10px;font-size:12px;box-sizing:border-box;border-radius:2px;margin:0 0 9px;outline:0}.rv-search-wrapper__contents{flex:1;overflow:auto}.rv-continuous-color-legend{font-size:12px}.rv-continuous-color-legend .rv-gradient{height:4px;border-radius:2px;margin-bottom:5px}.rv-continuous-size-legend{font-size:12px}.rv-continuous-size-legend .rv-bubbles{text-align:justify;overflow:hidden;margin-bottom:5px;width:100%}.rv-continuous-size-legend .rv-bubble{background:#d8d9dc;display:inline-block;vertical-align:bottom}.rv-continuous-size-legend .rv-spacer{display:inline-block;font-size:0;line-height:0;width:100%}.rv-legend-titles{height:16px;position:relative}.rv-legend-titles__left,.rv-legend-titles__right,.rv-legend-titles__center{position:absolute;white-space:nowrap;overflow:hidden}.rv-legend-titles__center{display:block;text-align:center;width:100%}.rv-legend-titles__right{right:0}.rv-radial-chart .rv-xy-plot__series--label{pointer-events:none}
        <br />
        <br />/*]]&gt;*/
    </style>
</svg>
